<?xml version="1.0" encoding="utf-8"?>
<!-- Generator: Adobe Illustrator 19.0.0, SVG Export Plug-In . SVG Version: 6.00 Build 0)  -->
<svg version="1.1" id="Layer_1" xmlns="http://www.w3.org/2000/svg" xmlns:xlink="http://www.w3.org/1999/xlink" x="0px" y="0px"
	 viewBox="-281.5 402.4 37 37" style="enable-background:new -281.5 402.4 37 37;" xml:space="preserve">
<style type="text/css">
	.st0{fill:none;stroke:#FFFFFF;stroke-width:3;stroke-miterlimit:10;}
	.st1{fill:#FFFFFF;}
</style>
<path class="st0" d="M-263,437.9c9.4,0,17-7.6,17-17s-7.6-17-17-17s-17,7.6-17,17S-272.4,437.9-263,437.9"/>
<path class="st1" d="M-267.1,418h1.8v-1.7c0-0.8,0-1.9,0.6-2.6c0.5-0.8,1.3-1.3,2.7-1.3c2.2,0,3.2,0.3,3.2,0.3l-0.4,2.6
	c0,0-0.7-0.2-1.4-0.2c-0.7,0-1.3,0.2-1.3,0.9v2h2.8l-0.2,2.5h-2.7v8.8h-3.3v-8.8h-1.8V418z"/>
</svg>
