<?xml version="1.0" encoding="utf-8"?>
<!-- Generator: Adobe Illustrator 19.0.0, SVG Export Plug-In . SVG Version: 6.00 Build 0)  -->
<svg version="1.1" id="Layer_1" xmlns="http://www.w3.org/2000/svg" xmlns:xlink="http://www.w3.org/1999/xlink" x="0px" y="0px"
	 viewBox="-282.2 402.4 37 37" style="enable-background:new -282.2 402.4 37 37;" xml:space="preserve">
<style type="text/css">
	.st0{fill:none;stroke:#FFFFFF;stroke-width:3;stroke-miterlimit:10;}
	.st1{fill:#FFFFFF;}
</style>
<path class="st0" d="M-263.7,437.9c9.4,0,17-7.6,17-17s-7.6-17-17-17s-17,7.6-17,17S-273.1,437.9-263.7,437.9"/>
<path class="st1" d="M-268.5,427.6h-3.3V417h3.3V427.6z M-270.2,415.7L-270.2,415.7c-1.2,0-2-0.8-2-1.8s0.8-1.8,2-1.8s2,0.8,2,1.8
	S-268.9,415.7-270.2,415.7z M-255.2,427.6h-3.8v-5.5c0-1.4-0.6-2.4-1.9-2.4c-1,0-1.5,0.7-1.8,1.3c0,0.2,0,0.6,0,0.9v5.7h-3.7
	c0,0,0-9.7,0-10.6h3.7v1.7c0.2-0.7,1.4-1.8,3.3-1.8c2.4,0,4.2,1.5,4.2,4.8V427.6z"/>
</svg>
