<?xml version="1.0" encoding="utf-8"?>
<!-- Generator: Adobe Illustrator 19.0.0, SVG Export Plug-In . SVG Version: 6.00 Build 0)  -->
<svg version="1.1" id="Layer_1" xmlns="http://www.w3.org/2000/svg" xmlns:xlink="http://www.w3.org/1999/xlink" x="0px" y="0px"
	 viewBox="-560.5 805.3 37 37" style="enable-background:new -560.5 805.3 37 37;" xml:space="preserve">
<style type="text/css">
	.st0{fill:none;stroke:#FFFFFF;stroke-width:3;stroke-miterlimit:10;}
	.st1{fill:#FFFFFF;}
</style>
<path class="st0" d="M-542,840.8c9.4,0,17-7.6,17-17s-7.6-17-17-17s-17,7.6-17,17S-551.4,840.8-542,840.8"/>
<path id="XMLID_10_" class="st1" d="M-550.7,829.6c1.6,1,3.5,1.6,5.5,1.6c6.7,0,10.5-5.6,10.2-10.7c0.7-0.5,1.3-1.1,1.8-1.9
	c-0.6,0.3-1.3,0.5-2.1,0.6c0.7-0.4,1.3-1.2,1.6-2c-0.7,0.4-1.5,0.7-2.3,0.9c-0.6-0.7-1.6-1.1-2.6-1.1c-2.3,0-4,2.2-3.5,4.4
	c-3-0.1-5.6-1.6-7.4-3.7c-0.9,1.6-0.5,3.7,1.1,4.8c-0.6,0-1.2-0.2-1.6-0.4c0,1.7,1.2,3.2,2.9,3.6c-0.5,0.1-1.1,0.2-1.6,0
	c0.5,1.4,1.8,2.5,3.4,2.5C-546.9,829.3-548.8,829.8-550.7,829.6z"/>
</svg>
